<svg width="176" height="31" viewBox="0 0 176 31" fill="none" xmlns="http://www.w3.org/2000/svg">
<path d="M-2.53552e-05 23.1156V0.642136H7.67305C10.3057 0.642136 12.4674 1.11301 14.1583 2.05475C15.8705 2.9751 17.1333 4.2807 17.9466 5.97156C18.7814 7.64101 19.1987 9.61012 19.1987 11.8789C19.1987 14.1476 18.7814 16.1274 17.9466 17.8183C17.1333 19.4877 15.8705 20.7933 14.1583 21.7351C12.4674 22.6554 10.3057 23.1156 7.67305 23.1156H-2.53552e-05ZM4.10941 19.584H7.48043C9.36391 19.584 10.8514 19.2844 11.943 18.6851C13.0346 18.0644 13.8158 17.1869 14.2867 16.0525C14.7575 14.8967 14.993 13.5055 14.993 11.8789C14.993 10.2736 14.7575 8.89311 14.2867 7.73733C13.8158 6.58155 13.0346 5.69331 11.943 5.07262C10.8514 4.45192 9.36391 4.14158 7.48043 4.14158H4.10941V19.584ZM28.2182 23.5009C26.8484 23.5009 25.7247 23.2868 24.8472 22.8588C23.9697 22.4093 23.3169 21.8207 22.8888 21.093C22.4607 20.3653 22.2467 19.5626 22.2467 18.6851C22.2467 17.2083 22.8246 16.0097 23.9804 15.0894C25.1361 14.169 26.8698 13.7088 29.1814 13.7088H33.2266V13.3236C33.2266 12.232 32.9162 11.4294 32.2955 10.9157C31.6748 10.402 30.9043 10.1452 29.984 10.1452C29.1492 10.1452 28.4215 10.3485 27.8008 10.7552C27.1801 11.1405 26.7949 11.7183 26.6451 12.4889H22.6319C22.739 11.3331 23.1242 10.3271 23.7877 9.47099C24.4726 8.61486 25.3502 7.96206 26.4203 7.51259C27.4905 7.04172 28.6891 6.80628 30.0161 6.80628C32.2848 6.80628 34.072 7.37347 35.3776 8.50785C36.6832 9.64222 37.336 11.2475 37.336 13.3236V23.1156H33.8366L33.4513 20.5472C32.9804 21.4033 32.3169 22.1096 31.4608 22.6661C30.6261 23.2226 29.5452 23.5009 28.2182 23.5009ZM29.1492 20.2904C30.3264 20.2904 31.2361 19.9051 31.8782 19.1346C32.5417 18.3641 32.959 17.4116 33.1303 16.2772H29.6308C28.5393 16.2772 27.758 16.4806 27.2872 16.8872C26.8163 17.2725 26.5809 17.7541 26.5809 18.332C26.5809 18.9527 26.8163 19.4342 27.2872 19.7767C27.758 20.1191 28.3787 20.2904 29.1492 20.2904ZM41.2576 23.1156V7.19154H44.9175L45.3028 10.1773C45.8807 9.14994 46.6619 8.33662 47.6465 7.73733C48.6524 7.11663 49.8296 6.80628 51.178 6.80628V11.1405H50.0222C49.1233 11.1405 48.3207 11.2796 47.6144 11.5578C46.908 11.8361 46.3516 12.3176 45.9449 13.0025C45.5596 13.6874 45.367 14.6399 45.367 15.8599V23.1156H41.2576ZM55.9772 30.1787L59.6693 22.0561H58.7061L52.5099 7.19154H56.9724L61.435 18.3962L66.0902 7.19154H70.4565L60.3435 30.1787H55.9772ZM73.143 23.1156V3.82721e-05H77.2525V23.1156H73.143Z" fill="white"/>
<path d="M96.8708 23.5009C95.2228 23.5009 93.7674 23.2226 92.5046 22.6661C91.2418 22.0882 90.2465 21.2749 89.5188 20.2261C88.7911 19.156 88.4165 17.8611 88.3951 16.3415H92.7293C92.7721 17.3902 93.1467 18.2784 93.853 19.0062C94.5807 19.7125 95.5759 20.0656 96.8387 20.0656C97.9303 20.0656 98.7971 19.8088 99.4392 19.2951C100.081 18.76 100.402 18.0537 100.402 17.1762C100.402 16.2558 100.113 15.5388 99.5356 15.0251C98.9791 14.5115 98.23 14.0941 97.2882 13.7731C96.3465 13.452 95.3405 13.1096 94.2703 12.7457C92.5367 12.1464 91.2097 11.3759 90.2893 10.4341C89.3904 9.4924 88.9409 8.24031 88.9409 6.67786C88.9195 5.35086 89.2299 4.21649 89.872 3.27474C90.5355 2.31159 91.4344 1.57318 92.5688 1.0595C93.7032 0.524419 95.0088 0.256878 96.4856 0.256878C97.9838 0.256878 99.3001 0.524419 100.434 1.0595C101.59 1.59458 102.489 2.3437 103.131 3.30685C103.795 4.26999 104.148 5.41507 104.191 6.74207H99.7924C99.771 5.95015 99.4606 5.25455 98.8614 4.65525C98.2835 4.03456 97.4701 3.72421 96.4214 3.72421C95.5224 3.70281 94.7626 3.92754 94.1419 4.39842C93.5426 4.84788 93.243 5.51139 93.243 6.38892C93.243 7.13804 93.4784 7.73733 93.9493 8.1868C94.4202 8.61486 95.0623 8.97872 95.8756 9.27836C96.6889 9.57801 97.62 9.89906 98.6687 10.2415C99.7817 10.6268 100.798 11.0762 101.719 11.5899C102.639 12.1036 103.377 12.7885 103.934 13.6446C104.49 14.4794 104.769 15.5602 104.769 16.8872C104.769 18.0644 104.469 19.156 103.87 20.1619C103.27 21.1679 102.382 21.9812 101.205 22.6019C100.028 23.2012 98.5831 23.5009 96.8708 23.5009ZM108.258 23.1156V7.19154H111.886L112.239 9.34257C112.753 8.57206 113.427 7.96206 114.261 7.51259C115.118 7.04172 116.102 6.80628 117.215 6.80628C119.676 6.80628 121.421 7.75873 122.448 9.66362C123.026 8.78609 123.797 8.09048 124.76 7.5768C125.744 7.06312 126.814 6.80628 127.97 6.80628C130.046 6.80628 131.641 7.42698 132.754 8.66837C133.867 9.90976 134.423 11.729 134.423 14.1262V23.1156H130.314V14.5115C130.314 13.1417 130.046 12.0929 129.511 11.3652C128.998 10.6375 128.195 10.2736 127.103 10.2736C125.99 10.2736 125.092 10.6803 124.407 11.4936C123.743 12.3069 123.411 13.4413 123.411 14.8967V23.1156H119.302V14.5115C119.302 13.1417 119.034 12.0929 118.499 11.3652C117.964 10.6375 117.14 10.2736 116.027 10.2736C114.936 10.2736 114.047 10.6803 113.363 11.4936C112.699 12.3069 112.367 13.4413 112.367 14.8967V23.1156H108.258ZM140.54 4.71946C139.791 4.71946 139.17 4.49473 138.678 4.04526C138.207 3.59579 137.972 3.0286 137.972 2.3437C137.972 1.65879 138.207 1.10231 138.678 0.674241C139.17 0.224772 139.791 3.82721e-05 140.54 3.82721e-05C141.289 3.82721e-05 141.899 0.224772 142.37 0.674241C142.862 1.10231 143.108 1.65879 143.108 2.3437C143.108 3.0286 142.862 3.59579 142.37 4.04526C141.899 4.49473 141.289 4.71946 140.54 4.71946ZM138.485 23.1156V7.19154H142.595V23.1156H138.485ZM153.979 23.1156C152.31 23.1156 150.972 22.7089 149.966 21.8956C148.96 21.0823 148.457 19.6376 148.457 17.5614V10.6268H145.728V7.19154H148.457L148.939 2.92159H152.567V7.19154H156.869V10.6268H152.567V17.5935C152.567 18.3641 152.727 18.8991 153.048 19.1988C153.391 19.477 153.969 19.6162 154.782 19.6162H156.772V23.1156H153.979ZM160.397 23.1156V3.82721e-05H164.506V9.63152C165.041 8.75398 165.759 8.06908 166.657 7.5768C167.578 7.06312 168.627 6.80628 169.804 6.80628C171.773 6.80628 173.292 7.42698 174.363 8.66837C175.454 9.90976 176 11.729 176 14.1262V23.1156H171.923V14.5115C171.923 13.1417 171.644 12.0929 171.088 11.3652C170.553 10.6375 169.697 10.2736 168.52 10.2736C167.364 10.2736 166.401 10.6803 165.63 11.4936C164.881 12.3069 164.506 13.4413 164.506 14.8967V23.1156H160.397Z" fill="url(#paint0_linear_1_862)"/>
<defs>
<linearGradient id="paint0_linear_1_862" x1="-2.18316" y1="4.93249" x2="178.296" y2="-0.182004" gradientUnits="userSpaceOnUse">
<stop stop-color="#F5BD4D"/>
<stop offset="1" stop-color="#F89222"/>
</linearGradient>
</defs>
</svg>
