<svg width="8" height="425" viewBox="0 0 8 425" fill="none" xmlns="http://www.w3.org/2000/svg">
<path fill-rule="evenodd" clip-rule="evenodd" d="M6 239.492V29.5356L8 28.1086V240.957L6 239.492ZM2 252.975V421C2 422.105 2.89543 423 4 423C5.10457 423 6 422.105 6 421V252.844L8 251.442V421C8 423.209 6.20914 425 4 425C1.79086 425 0 423.209 0 421V251.545L2 252.975ZM2 239.604V28.7792L0 27.3744V241.045L2 239.604ZM8 16.7655L6 15.3282V4C6 2.89543 5.10457 2 4 2C2.89543 2 2 2.89543 2 3.99999V15.8536L0 17.3211V3.99999C0 1.79086 1.79086 0 4 0C6.20914 0 8 1.79086 8 4V16.7655Z" fill="#646464"/>
</svg>
